<svg width="142" height="40" xmlns="http://www.w3.org/2000/svg">
 <!-- Created with Method Draw - http://github.com/duopixel/Method-Draw/ -->

 <g>
  <title>background</title>
  <rect x="-1" y="-1" width="144" height="42" id="canvas_background" fill="none"/>
 </g>
 <g>
  <title>Layer 1</title>
  <g clip-path="url(#clip0)" id="svg_2">
   <path d="m5.833,21.2121l2.3332,0l0,8.2424l5.2497,5.4546l11.5494,0l0,-1.9394l22.0488,0l6.6496,7.0303l59.0303,0l3.616,-7.0303l24.266,0l0,-14.9091c0.933,-0.7273 1.516,-1.697 1.633,-2.9091c0,-1.2121 -0.35,-2.0606 -0.933,-2.7879l-5.95,-6.303c-0.7,-0.8485 -1.867,-1.3333 -2.8,-1.3333c-1.75,0 -2.916,1.2121 -3.383,2.303l-16.449,0l-6.766,-7.0303l-105.928,0l0,15.1515l5.833,6.0606z" fill="black" id="svg_1"/>
   <path d="m105.578,0.7273l6.766,7.0303l17.382,0c0,0 0.584,-2.1818 2.917,-2.303c0.816,0 1.75,0.3636 2.216,1.0909l6.067,6.303c0.583,0.6061 0.7,1.4546 0.7,2.303c-0.117,1.2122 -0.7,2.0606 -1.634,2.5455l0,14.5455l-24.032,0l-3.616,7.0303l-58.3303,0l-6.7663,-7.0303l-22.9821,0l0,1.9393l-10.4994,0l-4.8997,-5.0909l0,-8.7272l-2.7999,0l-5.3663,-5.5758l0,-14.0606l104.878,0z" fill="#F4E116" id="svg_2"/>
   <path d="m14.1159,26.6667l3.0332,0l0,-17.4545l71.9799,0l0,-3.0303l-85.0459,0l0,3.0303l10.0328,0l0,17.4545z" fill="#F4E116" id="svg_3"/>
   <path d="m14.1159,26.6667l3.0332,0l0,-17.4545l71.9799,0l0,-3.0303l-85.0459,0l0,3.0303l10.0328,0l0,17.4545z" fill="black" id="svg_4"/>
   <path d="m22.3988,20.3637l5.2497,0l0,-2.7879l-5.2497,0l0,-1.3333l8.2829,0l0,-3.0303l-11.1994,0l0,11.5151l11.316,0l0,-3.0303l-8.3995,0l0,-1.3333z" fill="#F4E116" id="svg_5"/>
   <path d="m22.3988,20.3637l5.2497,0l0,-2.7879l-5.2497,0l0,-1.3333l8.2829,0l0,-3.0303l-11.1994,0l0,11.5151l11.316,0l0,-3.0303l-8.3995,0l0,-1.3333z" fill="black" id="svg_6"/>
   <path d="m59.0301,24.7273l0,-11.5151l-2.9165,0l0,4.3636l-6.0664,0l0,-4.3636l-2.9165,0l0,11.5151l2.9165,0l0,-4.3636l6.0664,0l0,4.3636l2.9165,0z" fill="#F4E116" id="svg_7"/>
   <path d="m59.0301,24.7273l0,-11.5151l-2.9165,0l0,4.3636l-6.0664,0l0,-4.3636l-2.9165,0l0,11.5151l2.9165,0l0,-4.3636l6.0664,0c0,1.45453 0,2.90907 0,4.3636l2.9165,0z" fill="black" id="svg_8" stroke="null"/>
   <path d="m70.3462,24.7273l3.9664,0l0,-11.5151l-2.9165,0l0,8.1212l-6.183,-8.1212l-4.0831,0l0,11.5151l2.9165,0l0,-8.1212l6.2997,8.1212z" fill="#F4E116" id="svg_9"/>
   <path d="m70.3462,24.7273l3.9664,0l0,-11.5151l-2.9165,0l0,8.1212l-6.183,-8.1212l-4.0831,0l0,11.5151l2.9165,0l0,-8.1212l6.2997,8.1212z" fill="black" id="svg_10"/>
   <path d="m79.4457,20.8484l0,-2.4242l0,2.4242c0,0.4849 0.35,0.8485 0.8163,0.8485l2.45,0l-2.45,0c-0.4663,0 -0.8163,-0.3636 -0.8163,-0.8485z" fill="#F4E116" id="svg_11"/>
   <path d="m79.4457,20.8484l0,-2.4242l0,2.4242c0,0.4849 0.35,0.8485 0.8163,0.8485l2.45,0l-2.45,0c-0.4663,0 -0.8163,-0.3636 -0.8163,-0.8485z" fill="black" id="svg_12"/>
   <path d="m85.862,13.2122c0.933,0 1.867,0.4848 2.45,1.0909c-0.7,-0.6061 -1.517,-1.0909 -2.45,-1.0909l-6.0663,0c-0.8167,0 -1.6333,0.3636 -2.2166,0.8484c0.5833,-0.4848 1.3999,-0.8484 2.2166,-0.8484l6.0663,0z" fill="#F4E116" id="svg_13"/>
   <path d="m85.862,13.2122c0.933,0 1.867,0.4848 2.45,1.0909c-0.7,-0.6061 -1.517,-1.0909 -2.45,-1.0909l-6.0663,0c-0.8167,0 -1.6333,0.3636 -2.2166,0.8484c0.5833,-0.4848 1.3999,-0.8484 2.2166,-0.8484l6.0663,0z" fill="black" id="svg_14"/>
   <path d="m85.395,16.2424l-5.133,0c-0.233,0 -0.4663,0.1212 -0.5829,0.2425c0.1166,-0.1213 0.3499,-0.2425 0.5829,-0.2425l5.133,0c0.467,0 0.817,0.3637 0.817,0.8485l0,3.6364c0,0.1212 0,0.2424 -0.117,0.3636c0,-0.1212 0.117,-0.2424 0.117,-0.3636l0,-3.6364c0,-0.4848 -0.35,-0.8485 -0.817,-0.8485z" fill="#F4E116" id="svg_15"/>
   <path d="m85.395,16.2424l-5.133,0c-0.233,0 -0.4663,0.1212 -0.5829,0.2425c0.1166,-0.1213 0.3499,-0.2425 0.5829,-0.2425l5.133,0c0.467,0 0.817,0.3637 0.817,0.8485l0,3.6364c0,0.1212 0,0.2424 -0.117,0.3636c0,-0.1212 0.117,-0.2424 0.117,-0.3636l0,-3.6364c0,-0.4848 -0.35,-0.8485 -0.817,-0.8485z" fill="black" id="svg_16"/>
   <path d="m85.862,24.7273l-6.0663,0c-1.05,0 -1.8666,-0.4849 -2.5666,-1.2122c0.5833,0.7273 1.5166,1.2122 2.5666,1.2122l6.0663,0c0.933,0 1.867,-0.4849 2.45,-1.091c-0.7,0.7273 -1.517,1.091 -2.45,1.091z" fill="#F4E116" id="svg_17"/>
   <path d="m85.862,24.7273l-6.0663,0c-1.05,0 -1.8666,-0.4849 -2.5666,-1.2122c0.5833,0.7273 1.5166,1.2122 2.5666,1.2122l6.0663,0c0.933,0 1.867,-0.4849 2.45,-1.091c-0.7,0.7273 -1.517,1.091 -2.45,1.091z" fill="black" id="svg_18"/>
   <path d="m42.1144,20.3637l0,0.3636c0,0.4849 -0.3499,0.8485 -0.8166,0.8485l-5.133,0c-0.4667,0 -0.8167,-0.3636 -0.8167,-0.8485l0,-3.6364c0,-0.4848 0.35,-0.8484 0.8167,-0.8484l5.133,0c0.4667,0 0.8166,0.3636 0.8166,0.8484l0,0.3637l2.9165,0l0,-0.8485c0,-1.9394 -1.5165,-3.3939 -3.2664,-3.3939l-5.9497,0c-1.8666,0 -3.3832,1.5757 -3.3832,3.3939l0,4.6061c0,1.9394 1.5166,3.3939 3.2665,3.3939l6.0664,0c1.8665,0 3.2664,-1.5758 3.2664,-3.3939l0,-0.9697l-2.9165,0.1212z" fill="#F4E116" id="svg_19"/>
   <path d="m42.1144,20.3637l0,0.3636c0,0.4849 -0.3499,0.8485 -0.8166,0.8485l-5.133,0c-0.4667,0 -0.8167,-0.3636 -0.8167,-0.8485l0,-3.6364c0,-0.4848 0.35,-0.8484 0.8167,-0.8484l5.133,0c0.4667,0 0.8166,0.3636 0.8166,0.8484l0,0.3637l2.9165,0l0,-0.8485c0,-1.9394 -1.5165,-3.3939 -3.2664,-3.3939l-5.9497,0c-1.8666,0 -3.3832,1.5757 -3.3832,3.3939l0,4.6061c0,1.9394 1.5166,3.3939 3.2665,3.3939l6.0664,0c1.8665,0 3.2664,-1.5758 3.2664,-3.3939l0,-0.9697l-2.9165,0.1212z" fill="black" id="svg_20"/>
   <path d="m94.962,24.7273l10.149,0l0,-8.4848l-5.833,0l0,3.1515l2.916,0l0,2.303l-6.882,0c-0.467,0 -0.934,-0.4848 -0.934,-1.0909l0,-7.2727c0,-0.6061 0.35,-1.0909 0.934,-1.0909l9.332,0l0,-3.0303l-9.566,0c-1.983,0 -3.616,1.9394 -3.616,4.2424l0,7.0303c-0.117,2.303 1.4,4.2424 3.5,4.2424z" fill="#F4E116" id="svg_21"/>
   <path d="m94.962,24.7273l10.149,0l0,-8.4848l-5.833,0l0,3.1515l2.916,0l0,2.303l-6.882,0c-0.467,0 -0.934,-0.4848 -0.934,-1.0909l0,-7.2727c0,-0.6061 0.35,-1.0909 0.934,-1.0909l9.332,0l0,-3.0303l-9.566,0c-1.983,0 -3.616,1.9394 -3.616,4.2424l0,7.0303c-0.117,2.303 1.4,4.2424 3.5,4.2424z" fill="black" id="svg_22"/>
   <path d="m122.493,24.7273l0,-7.0303l3.384,7.0303l2.566,0l3.267,-7.0303l0,7.0303l2.916,0l0,-11.5151l-4.083,0l-3.383,7.1515l-3.383,-7.1515l-4.2,0l0,11.5151l2.916,0z" fill="#F4E116" id="svg_23"/>
   <path d="m122.493,24.7273l0,-7.0303l3.384,7.0303l2.566,0l3.267,-7.0303l0,7.0303l2.916,0l0,-11.5151l-4.083,0l-3.383,7.1515l-3.383,-7.1515l-4.2,0l0,11.5151l2.916,0z" fill="black" id="svg_24"/>
   <path d="m56.1136,28.7273l0,3.0303l52.3804,0l9.45,-18.5454l-3.267,0l-2.8,5.2121l-2.683,-5.2121l-3.383,0l4.433,8.3636l-3.733,7.1515l-50.3974,0z" fill="#F4E116" id="svg_25"/>
   <path d="m56.1136,28.7273l0,3.0303l52.3804,0l9.45,-18.5454l-3.267,0l-2.8,5.2121l-2.683,-5.2121l-3.383,0l4.433,8.3636l-3.733,7.1515l-50.3974,0z" fill="black" id="svg_26"/>
   <path d="m132.526,11.1516c1.283,0 2.333,-1.0909 2.333,-2.4243c0,-1.3333 -1.05,-2.4242 -2.333,-2.4242c-1.283,0 -2.333,1.0909 -2.333,2.4242c0,1.3334 1.05,2.4243 2.333,2.4243zm0,-4.4849c1.05,0 1.983,0.9697 1.983,2.0606c0,1.091 -0.933,2.0607 -1.983,2.0607c-1.05,0 -1.983,-0.9697 -1.983,-2.0607c0,-1.2121 0.933,-2.0606 1.983,-2.0606z" fill="#F4E116" id="svg_27"/>
   <path d="m132.526,11.1516c1.283,0 2.333,-1.0909 2.333,-2.4243c0,-1.3333 -1.05,-2.4242 -2.333,-2.4242c-1.283,0 -2.333,1.0909 -2.333,2.4242c0,1.3334 1.05,2.4243 2.333,2.4243zm0,-4.4849c1.05,0 1.983,0.9697 1.983,2.0606c0,1.091 -0.933,2.0607 -1.983,2.0607c-1.05,0 -1.983,-0.9697 -1.983,-2.0607c0,-1.2121 0.933,-2.0606 1.983,-2.0606z" fill="black" id="svg_28"/>
   <path d="m132.059,9.091l0.7,0c0.234,0 0.35,0.1212 0.35,0.3636l0,0.4849l0.467,0l0,-0.4849c0,-0.3636 -0.117,-0.4848 -0.35,-0.606c0.35,-0.1212 0.467,-0.3636 0.467,-0.7273c0,-0.606 -0.234,-0.7273 -0.7,-0.7273l-1.167,0l0,2.4243l0.467,0l0,-0.7273l-0.234,0zm0,-1.2121l0.584,0c0.35,0 0.35,0.1212 0.35,0.3636c0,0.3637 -0.117,0.4849 -0.467,0.4849l-0.583,0l0,-0.8485l0.116,0z" fill="#F4E116" id="svg_29"/>
   <path d="m132.059,9.091l0.7,0c0.234,0 0.35,0.1212 0.35,0.3636l0,0.4849l0.467,0l0,-0.4849c0,-0.3636 -0.117,-0.4848 -0.35,-0.606c0.35,-0.1212 0.467,-0.3636 0.467,-0.7273c0,-0.606 -0.234,-0.7273 -0.7,-0.7273l-1.167,0l0,2.4243l0.467,0l0,-0.7273l-0.234,0zm0,-1.2121l0.584,0c0.35,0 0.35,0.1212 0.35,0.3636c0,0.3637 -0.117,0.4849 -0.467,0.4849l-0.583,0l0,-0.8485l0.116,0z" fill="black" id="svg_30"/>
   <path d="m132.059,9.091l0.7,0c0.234,0 0.35,0.1212 0.35,0.3636l0,0.4849l0.467,0l0,-0.4849c0,-0.3636 -0.117,-0.4848 -0.35,-0.606c0.35,-0.1212 0.467,-0.3636 0.467,-0.7273c0,-0.606 -0.234,-0.7273 -0.7,-0.7273l-1.167,0l0,2.4243l0.467,0l0,-0.7273l-0.234,0zm0,-1.2121l0.584,0c0.35,0 0.35,0.1212 0.35,0.3636c0,0.3637 -0.117,0.4849 -0.467,0.4849l-0.583,0l0,-0.8485l0.116,0z" fill="black" id="svg_31"/>
   <path d="m89.128,16.7272l0,4.6061c0,0.8485 -0.35,1.697 -0.933,2.303c0.583,-0.606 0.933,-1.4545 0.933,-2.303l0,-4.6061c0,-0.8485 -0.35,-1.6969 -0.933,-2.303c0.583,0.4848 0.933,1.3333 0.933,2.303z" fill="#F4E116" id="svg_32"/>
   <path d="m89.128,16.7272l0,4.6061c0,0.8485 -0.35,1.697 -0.933,2.303c0.583,-0.606 0.933,-1.4545 0.933,-2.303l0,-4.6061c0,-0.8485 -0.35,-1.6969 -0.933,-2.303c0.583,0.4848 0.933,1.3333 0.933,2.303z" fill="black" id="svg_33"/>
   <path d="m85.395,21.697l-2.683,0l2.683,0c0.35,0 0.584,-0.2424 0.817,-0.4848c-0.233,0.2424 -0.467,0.4848 -0.817,0.4848z" fill="#F4E116" id="svg_34"/>
   <path d="m85.395,21.697l-2.683,0l2.683,0c0.35,0 0.584,-0.2424 0.817,-0.4848c-0.233,0.2424 -0.467,0.4848 -0.817,0.4848z" fill="black" id="svg_35"/>
   <path d="m76.5292,16.606c0,-0.9697 0.4666,-1.9394 1.1666,-2.5455c-0.8166,0.6061 -1.1666,1.5758 -1.1666,2.5455l0,4.6061c0,0.8484 0.35,1.5757 0.8166,2.1818c-0.4666,-0.6061 -0.8166,-1.3334 -0.8166,-2.1818l0,-4.6061z" fill="#F4E116" id="svg_36"/>
   <path d="m76.5292,16.606c0,-0.9697 0.4666,-1.9394 1.1666,-2.5455c-0.8166,0.6061 -1.1666,1.5758 -1.1666,2.5455l0,4.6061c0,0.8484 0.35,1.5757 0.8166,2.1818c-0.4666,-0.6061 -0.8166,-1.3334 -0.8166,-2.1818l0,-4.6061z" fill="black" id="svg_37"/>
   <path d="m79.679,16.4849c-0.1167,0.1212 -0.2333,0.3636 -0.2333,0.606l0,1.3334l0,-1.3334c0,-0.2424 0.1166,-0.3636 0.2333,-0.606z" fill="#F4E116" id="svg_38"/>
   <path d="m79.679,16.4849c-0.1167,0.1212 -0.2333,0.3636 -0.2333,0.606l0,1.3334l0,-1.3334c0,-0.2424 0.1166,-0.3636 0.2333,-0.606z" fill="black" id="svg_39"/>
   <path d="m89.129,16.7273c0,-0.8485 -0.35,-1.697 -0.934,-2.303c-0.583,-0.7273 -1.516,-1.0909 -2.45,-1.0909l-6.066,0c-0.8166,0 -1.6332,0.3636 -2.2165,0.8485c-0.7,0.606 -1.1666,1.5757 -1.1666,2.5454l0,4.6061c0,0.8485 0.35,1.5757 0.8166,2.1818c0.5833,0.7273 1.5166,1.2121 2.5665,1.2121l6.066,0c0.934,0 1.867,-0.4848 2.45,-1.0909c0.584,-0.606 0.934,-1.4545 0.934,-2.303l0,-4.6061zm-2.917,4.1212c0,0.1212 0,0.2425 -0.117,0.3637c-0.116,0.3636 -0.466,0.4848 -0.816,0.4848l-2.683,0l-2.45,0c-0.467,0 -0.8169,-0.3636 -0.8169,-0.8485l0,-2.4242l0,-1.3333c0,-0.2425 0.1166,-0.4849 0.2333,-0.6061c0.1166,-0.1212 0.35,-0.2424 0.5836,-0.2424l5.133,0c0.466,0 0.816,0.3636 0.816,0.8485l0.117,3.7575z" fill="#F4E116" id="svg_40"/>
   <path d="m89.129,16.7273c0,-0.8485 -0.35,-1.697 -0.934,-2.303c-0.583,-0.7273 -1.516,-1.0909 -2.45,-1.0909l-6.066,0c-0.8166,0 -1.6332,0.3636 -2.2165,0.8485c-0.7,0.606 -1.1666,1.5757 -1.1666,2.5454l0,4.6061c0,0.8485 0.35,1.5757 0.8166,2.1818c0.5833,0.7273 1.5166,1.2121 2.5665,1.2121l6.066,0c0.934,0 1.867,-0.4848 2.45,-1.0909c0.584,-0.606 0.934,-1.4545 0.934,-2.303l0,-4.6061zm-2.917,4.1212c0,0.1212 0,0.2425 -0.117,0.3637c-0.116,0.3636 -0.466,0.4848 -0.816,0.4848l-2.683,0l-2.45,0c-0.467,0 -0.8169,-0.3636 -0.8169,-0.8485l0,-2.4242l0,-1.3333c0,-0.2425 0.1166,-0.4849 0.2333,-0.6061c0.1166,-0.1212 0.35,-0.2424 0.5836,-0.2424l5.133,0c0.466,0 0.816,0.3636 0.816,0.8485l0.117,3.7575z" fill="black" id="svg_41"/>
   <path d="m89.129,16.7273c0,-0.8485 -0.35,-1.697 -0.934,-2.303c-0.583,-0.7273 -1.516,-1.0909 -2.45,-1.0909l-6.066,0c-0.8166,0 -1.6332,0.3636 -2.2165,0.8485c-0.7,0.606 -1.1666,1.5757 -1.1666,2.5454l0,4.6061c0,0.8485 0.35,1.5757 0.8166,2.1818c0.5833,0.7273 1.5166,1.2121 2.5665,1.2121l6.066,0c0.934,0 1.867,-0.4848 2.45,-1.0909c0.584,-0.606 0.934,-1.4545 0.934,-2.303l0,-4.6061zm-2.917,4.1212c0,0.1212 0,0.2425 -0.117,0.3637c-0.116,0.3636 -0.466,0.4848 -0.816,0.4848l-2.683,0l-2.45,0c-0.467,0 -0.8169,-0.3636 -0.8169,-0.8485l0,-2.4242l0,-1.3333c0,-0.2425 0.1166,-0.4849 0.2333,-0.6061c0.1166,-0.1212 0.35,-0.2424 0.5836,-0.2424l5.133,0c0.466,0 0.816,0.3636 0.816,0.8485l0.117,3.7575z" fill="black" id="svg_42"/>
  </g>
 </g>
</svg>